<?xml version="1.0" encoding="utf-8"?>
<!-- Generator: Adobe Illustrator 24.0.1, SVG Export Plug-In . SVG Version: 6.00 Build 0)  -->
<svg version="1.1" id="Layer_1" xmlns="http://www.w3.org/2000/svg" xmlns:xlink="http://www.w3.org/1999/xlink" x="0px" y="0px"
	 viewBox="0 0 512 512" style="enable-background:new 0 0 512 512;" xml:space="preserve">
<style type="text/css">
	.st0{fill:#DD6600;}
</style>
<path class="st0" d="M130.2,223.3c0-5.1,2-10.3,6-14.2c7.9-7.7,20.5-7.6,28.3,0.3l77.2,78.6c3.8,3.8,8.8,5.9,14.1,6
	c5.3,0,10.3-2,14.1-5.8l78.1-77.8c7.8-7.8,20.5-7.8,28.3,0.1c7.8,7.8,7.8,20.5-0.1,28.3l-78.1,77.8c-11.4,11.4-26.5,17.6-42.6,17.5
	c-16.1-0.1-31.1-6.5-42.4-17.9l-77.3-78.6C132.1,233.5,130.2,228.4,130.2,223.3z M36.1,387.2c5.7,9.5,17.9,12.6,27.4,6.9
	c9.5-5.7,12.6-18,6.9-27.4C50.3,333,39.8,294.3,40,254.8C40.7,135.7,138.1,39.3,257.2,40c119.1,0.7,215.4,98.1,214.8,217.2
	S373.9,472.7,254.8,472c-42.6-0.2-84-13.1-119.7-37.3c-9.1-6.2-21.6-3.8-27.8,5.4c-6.2,9.1-3.8,21.6,5.3,27.8
	C155,496.4,204,511.7,254.5,512c68.4,0.4,132.8-25.9,181.4-73.9s75.6-112.2,76-180.6c0.4-68.4-25.9-132.8-73.9-181.4
	S325.8,0.4,257.5,0S124.6,25.9,76,74S0.4,186.2,0,254.5C-0.3,301.4,12.2,347.2,36.1,387.2z"/>
</svg>
